<?xml version="1.0" standalone="no"?>
<!DOCTYPE svg PUBLIC "-//W3C//DTD SVG 20010904//EN"
 "http://www.w3.org/TR/2001/REC-SVG-20010904/DTD/svg10.dtd">
<svg version="1.0" xmlns="http://www.w3.org/2000/svg"
 width="512.000000pt" height="512.000000pt" viewBox="0 0 512.000000 512.000000"
 preserveAspectRatio="xMidYMid meet">

<g transform="translate(0.000000,512.000000) scale(0.100000,-0.100000)"
fill="#000000" stroke="none">
<path d="M95 4626 c-41 -18 -83 -69 -90 -109 -3 -18 -4 -910 -3 -1984 l3
-1952 21 -27 c11 -15 33 -37 48 -48 l27 -21 2459 0 2459 0 27 21 c15 11 37 33
48 48 l21 27 0 1979 0 1979 -21 27 c-11 15 -33 37 -48 48 -27 21 -35 21 -1034
24 -1133 3 -1102 4 -1249 -68 -49 -24 -107 -64 -143 -97 l-60 -55 -60 55 c-77
71 -199 132 -303 152 -111 21 -2055 22 -2102 1z m2115 -317 c80 -37 125 -81
162 -157 l33 -67 3 -1323 2 -1322 -51 25 c-28 15 -85 35 -127 46 -72 18 -118
19 -1004 19 l-928 0 0 1405 0 1405 928 -2 927 -3 55 -26z m2610 -1374 l0
-1405 -928 0 c-886 0 -932 -1 -1004 -19 -42 -11 -99 -31 -127 -46 l-51 -25 2
1322 3 1323 26 55 c34 71 70 114 127 147 89 52 72 52 1045 52 l907 1 0 -1405z
m-2626 -1726 c72 -26 148 -96 182 -166 23 -46 28 -72 32 -159 l5 -104 -1057 0
-1056 0 0 225 0 225 920 0 c903 0 920 0 974 -21z m2626 -204 l0 -225 -1056 0
-1056 0 4 103 c3 87 7 111 31 159 34 70 110 140 180 167 51 19 77 20 975 20
l922 1 0 -225z"/>
<path d="M695 4026 c-41 -18 -83 -69 -90 -109 -3 -18 -5 -178 -3 -357 3 -325
3 -325 27 -359 42 -59 55 -61 421 -61 366 0 379 2 421 61 l24 34 0 352 c0 339
-1 352 -21 379 -11 15 -33 37 -48 48 -26 20 -42 21 -364 23 -265 2 -344 0
-367 -11z m505 -436 l0 -150 -150 0 -150 0 0 150 0 150 150 0 150 0 0 -150z"/>
<path d="M1915 4033 c-69 -19 -109 -81 -103 -160 7 -79 65 -133 143 -133 78 0
136 54 143 133 5 63 -12 105 -56 136 -31 21 -93 33 -127 24z"/>
<path d="M1915 3433 c-69 -19 -109 -81 -103 -160 7 -79 65 -133 143 -133 78 0
136 54 143 133 5 63 -12 105 -56 136 -31 21 -93 33 -127 24z"/>
<path d="M695 2826 c-64 -28 -106 -109 -90 -173 10 -42 45 -84 81 -99 49 -21
1289 -21 1338 0 51 21 81 71 81 133 0 56 -18 90 -69 127 -27 21 -38 21 -669
23 -518 2 -648 0 -672 -11z"/>
<path d="M695 2226 c-64 -28 -106 -109 -90 -173 10 -42 45 -84 81 -99 49 -21
1289 -21 1338 0 51 21 81 71 81 133 0 56 -18 90 -69 127 -27 21 -38 21 -669
23 -518 2 -648 0 -672 -11z"/>
<path d="M3105 4026 c-64 -28 -106 -109 -90 -173 10 -42 45 -84 81 -99 49 -21
1289 -21 1338 0 51 21 81 71 81 133 0 56 -18 90 -69 127 -27 21 -38 21 -669
23 -518 2 -648 0 -672 -11z"/>
<path d="M3105 3426 c-64 -28 -106 -109 -90 -173 10 -42 45 -84 81 -99 49 -21
1289 -21 1338 0 51 21 81 71 81 133 0 56 -18 90 -69 127 -27 21 -38 21 -669
23 -518 2 -648 0 -672 -11z"/>
<path d="M3105 2826 c-17 -7 -43 -28 -58 -45 -93 -111 4 -264 150 -236 45 8
98 61 108 106 16 70 -25 148 -92 175 -40 17 -69 17 -108 0z"/>
<path d="M3725 2833 c-33 -9 -74 -43 -93 -76 -15 -28 -17 -70 -20 -334 -4
-337 2 -395 46 -435 51 -48 53 -48 407 -48 354 0 356 0 407 48 44 40 50 98 46
435 -3 334 -5 342 -70 389 -33 23 -34 23 -368 25 -184 0 -344 -1 -355 -4z
m485 -443 l0 -150 -145 0 -145 0 0 150 0 150 145 0 145 0 0 -150z"/>
<path d="M3105 2226 c-17 -7 -43 -28 -58 -45 -93 -111 4 -264 150 -236 45 8
98 61 108 106 16 70 -25 148 -92 175 -40 17 -69 17 -108 0z"/>
</g>
</svg>
