<?xml version="1.0" standalone="no"?>
<!DOCTYPE svg PUBLIC "-//W3C//DTD SVG 20010904//EN"
 "http://www.w3.org/TR/2001/REC-SVG-20010904/DTD/svg10.dtd">
<svg version="1.0" xmlns="http://www.w3.org/2000/svg"
 width="512.000000pt" height="512.000000pt" viewBox="0 0 512.000000 512.000000"
 preserveAspectRatio="xMidYMid meet">

<g transform="translate(0.000000,512.000000) scale(0.100000,-0.100000)"
fill="#000000" stroke="none">
<path d="M626 4789 c-62 -15 -153 -68 -197 -116 -22 -24 -55 -74 -72 -111
l-32 -67 0 -1936 0 -1935 37 -76 c45 -91 103 -147 196 -191 l67 -32 1936 0
1935 0 76 37 c91 45 147 103 191 196 l32 67 0 1935 0 1935 -32 67 c-44 93
-100 151 -191 196 l-76 37 -1915 2 c-1134 0 -1932 -3 -1955 -8z m3848 -161
c55 -16 138 -99 154 -154 18 -60 18 -3768 0 -3828 -16 -55 -99 -138 -154 -154
-60 -18 -3768 -18 -3828 0 -55 16 -138 99 -154 154 -18 60 -18 3768 0 3828 15
51 99 137 148 153 53 17 3777 17 3834 1z"/>
<path d="M765 4464 c-55 -20 -121 -88 -140 -143 -23 -67 -22 -617 1 -684 19
-57 93 -128 152 -145 26 -8 135 -12 334 -12 345 0 362 3 431 80 24 26 49 66
55 88 17 55 17 609 0 664 -17 59 -88 133 -145 152 -66 22 -627 22 -688 0z
m660 -169 l25 -24 0 -291 0 -291 -25 -24 -24 -25 -291 0 -291 0 -24 25 -25 24
0 291 0 291 25 24 24 25 291 0 291 0 24 -25z"/>
<path d="M2215 4464 c-55 -20 -121 -88 -140 -143 -23 -67 -22 -617 1 -684 19
-57 93 -128 152 -145 26 -8 135 -12 334 -12 345 0 362 3 431 80 24 26 49 66
55 88 8 26 12 135 12 334 0 335 -4 358 -71 426 -68 68 -90 72 -433 71 -238 0
-309 -3 -341 -15z m660 -169 l25 -24 0 -291 0 -291 -25 -24 -24 -25 -291 0
-291 0 -24 25 -25 24 0 291 0 291 25 24 24 25 291 0 291 0 24 -25z"/>
<path d="M3665 4464 c-55 -20 -121 -88 -140 -143 -20 -58 -22 -609 -3 -675 16
-55 99 -138 154 -154 28 -8 134 -12 336 -12 345 0 362 3 431 80 24 26 49 66
55 88 8 26 12 135 12 334 0 335 -4 358 -71 426 -68 68 -90 72 -433 71 -238 0
-309 -3 -341 -15z m660 -169 l25 -24 0 -291 0 -291 -25 -24 -24 -25 -291 0
-291 0 -24 25 -25 24 0 291 0 291 25 24 24 25 291 0 291 0 24 -25z"/>
<path d="M703 3245 c-44 -31 -37 -111 13 -134 17 -8 157 -11 458 -11 423 0
434 0 460 21 37 29 37 89 0 118 -26 21 -37 21 -468 21 -373 0 -445 -2 -463
-15z"/>
<path d="M2099 3247 c-20 -15 -39 -51 -39 -72 0 -9 13 -30 29 -46 l29 -29 442
0 442 0 29 29 c36 36 37 60 3 100 l-26 31 -446 0 c-336 -1 -451 -4 -463 -13z"/>
<path d="M3486 3239 c-37 -29 -37 -89 0 -118 26 -21 37 -21 460 -21 301 0 441
3 458 11 31 14 49 57 40 93 -14 57 -9 56 -490 56 -431 0 -442 0 -468 -21z"/>
<path d="M993 2888 c-27 -13 -47 -59 -38 -88 4 -11 16 -30 28 -40 20 -19 36
-20 323 -20 290 0 302 1 328 21 37 29 37 89 0 118 -26 20 -38 21 -323 20 -185
0 -304 -4 -318 -11z"/>
<path d="M2374 2877 c-20 -17 -27 -33 -27 -57 0 -24 7 -40 27 -57 l27 -23 304
0 303 0 26 31 c34 40 33 64 -3 100 l-29 29 -301 0 -300 0 -27 -23z"/>
<path d="M3766 2879 c-37 -29 -37 -89 0 -118 26 -20 38 -21 328 -21 250 0 305
3 323 15 44 31 37 111 -13 134 -17 7 -122 11 -318 11 -282 0 -294 -1 -320 -21z"/>
<path d="M769 2386 c-68 -24 -119 -76 -144 -147 -20 -55 -22 -609 -3 -673 16
-55 99 -138 154 -154 28 -8 134 -12 336 -12 345 0 362 3 431 80 24 26 49 66
55 88 8 26 12 135 12 334 0 343 -3 360 -79 431 -27 25 -66 50 -87 56 -59 16
-629 14 -675 -3z m656 -171 l25 -24 0 -291 0 -291 -25 -24 -24 -25 -291 0
-291 0 -24 25 -25 24 0 291 0 291 25 24 24 25 291 0 291 0 24 -25z"/>
<path d="M2216 2385 c-54 -19 -122 -89 -141 -144 -20 -58 -22 -609 -3 -675 16
-55 99 -138 154 -154 28 -8 134 -12 336 -12 345 0 362 3 431 80 24 26 49 66
55 88 8 26 12 135 12 334 0 343 -3 360 -79 431 -27 25 -66 50 -87 56 -61 17
-629 14 -678 -4z m659 -170 l25 -24 0 -291 0 -291 -25 -24 -24 -25 -291 0
-291 0 -24 25 -25 24 0 291 0 291 25 24 24 25 291 0 291 0 24 -25z"/>
<path d="M3666 2386 c-54 -20 -122 -90 -141 -145 -20 -58 -22 -609 -3 -675 16
-55 99 -138 154 -154 28 -8 134 -12 336 -12 345 0 362 3 431 80 24 26 49 66
55 88 8 26 12 135 12 334 0 331 -4 357 -67 422 -70 72 -62 71 -418 73 -255 2
-328 0 -359 -11z m659 -171 l25 -24 0 -291 0 -291 -25 -24 -24 -25 -291 0
-291 0 -24 25 -25 24 0 291 0 291 25 24 24 25 291 0 291 0 24 -25z"/>
<path d="M643 1145 c-44 -31 -37 -111 13 -134 17 -8 157 -11 458 -11 423 0
434 0 460 21 37 29 37 89 0 118 -26 21 -37 21 -468 21 -373 0 -445 -2 -463
-15z"/>
<path d="M2025 1128 c-31 -37 -28 -71 11 -105 l25 -23 440 0 441 0 29 29 c31
32 35 50 17 84 -25 47 -19 46 -490 47 l-446 0 -27 -32z"/>
<path d="M3426 1139 c-37 -29 -37 -89 0 -118 26 -21 37 -21 460 -21 296 0 441
4 457 11 49 22 61 86 22 124 l-24 25 -444 0 c-434 0 -445 0 -471 -21z"/>
<path d="M933 788 c-27 -13 -47 -59 -38 -88 4 -11 16 -30 28 -40 20 -19 36
-20 323 -20 290 0 302 1 328 21 37 29 37 89 0 118 -26 20 -38 21 -323 20 -185
0 -304 -4 -318 -11z"/>
<path d="M2315 778 c-37 -32 -37 -83 -1 -115 l27 -23 302 0 c317 1 321 1 345
47 18 34 14 52 -17 84 l-29 29 -301 0 c-297 0 -300 0 -326 -22z"/>
<path d="M3706 779 c-37 -29 -37 -89 0 -118 26 -20 38 -21 331 -21 l304 0 24
25 c27 26 31 51 14 88 -20 44 -43 47 -353 47 -282 0 -294 -1 -320 -21z"/>
</g>
</svg>
