<svg width="494" height="401" viewBox="0 0 494 401" fill="none" xmlns="http://www.w3.org/2000/svg">
<g clip-path="url(#clip0_27_641)">
<rect width="494" height="401" rx="30" fill="#131314"/>
<path d="M9.00923 0.472351C5.05337 2.20907 1.00103 7.12977 0.325635 10.9891C0.0361816 12.7259 -0.0603027 98.7899 0.0361816 202.414L0.325635 390.752L2.35181 393.357C3.41313 394.804 5.53579 396.927 6.98306 397.988L9.58813 400.014H246.843H484.098L486.703 397.988C488.151 396.927 490.273 394.804 491.335 393.357L493.361 390.752V199.809V8.86649L491.335 6.26141C490.273 4.81415 488.151 2.69149 486.703 1.63016C484.098 -0.396008 483.326 -0.396008 386.939 -0.685462C277.622 -0.974915 280.613 -1.0714 266.43 5.87548C261.702 8.1911 256.106 12.0505 252.632 15.2345L246.843 20.5411L241.054 15.2345C233.625 8.38407 221.854 2.49852 211.819 0.568835C201.11 -1.45734 13.544 -1.55382 9.00923 0.472351ZM213.074 31.0579C220.792 34.6278 225.134 38.8731 228.704 46.2059L231.888 52.6704L232.178 180.319L232.371 307.872L227.45 305.459C224.748 304.012 219.249 302.083 215.196 301.021C208.249 299.284 203.811 299.188 118.326 299.188H28.7885V163.627V28.0669L118.326 28.2599L207.767 28.5493L213.074 31.0579ZM464.898 163.627V299.188H375.36C289.875 299.188 285.437 299.284 278.49 301.021C274.438 302.083 268.938 304.012 266.237 305.459L261.316 307.872L261.509 180.319L261.798 52.6704L264.307 47.3638C267.587 40.5134 271.061 36.3645 276.56 33.1806C285.147 28.1634 283.507 28.1634 377.387 28.1634L464.898 28.0669V163.627ZM211.53 330.159C218.477 332.668 225.81 339.422 229.09 346.176C231.309 350.614 231.792 353.123 232.178 361.517L232.66 371.551H130.676H28.7885V349.842V328.133H117.554C204.68 328.133 206.32 328.133 211.53 330.159ZM464.898 349.842V371.551H363.01H261.123L261.509 361.613C261.798 353.219 262.184 350.904 264.5 346.272C267.78 339.518 275.113 332.765 281.867 330.159C286.788 328.326 289.296 328.23 375.939 328.23L464.898 328.133V349.842Z" fill="#5FB7D3"/>
<path d="M66.8998 58.363C62.944 60.0997 58.8916 65.0204 58.2163 68.8798C57.9268 70.6165 57.7338 86.054 57.9268 103.325C58.2163 134.682 58.2163 134.682 60.5319 137.963C64.5842 143.655 65.8385 143.848 101.152 143.848C136.465 143.848 137.719 143.655 141.772 137.963L144.087 134.682V100.72C144.087 68.0114 143.991 66.7571 142.061 64.152C141 62.7048 138.877 60.5821 137.43 59.5208C134.921 57.5911 133.378 57.4946 102.31 57.3017C76.7412 57.1087 69.119 57.3017 66.8998 58.363ZM115.624 100.43V114.903H101.152H86.6791V100.43V85.9575H101.152H115.624V100.43Z" fill="#5FB7D3"/>
<path d="M184.611 57.6876C177.953 59.5208 174.094 65.5028 174.673 73.1251C175.348 80.7474 180.944 85.9575 188.47 85.9575C195.996 85.9575 201.592 80.7474 202.267 73.1251C202.75 67.0466 201.11 62.9942 196.864 60.0032C193.873 57.9771 187.891 56.8192 184.611 57.6876Z" fill="#5FB7D3"/>
<path d="M184.611 115.578C177.953 117.411 174.094 123.393 174.673 131.016C175.348 138.638 180.944 143.848 188.47 143.848C195.996 143.848 201.592 138.638 202.267 131.016C202.75 124.937 201.11 120.885 196.864 117.894C193.873 115.868 187.891 114.71 184.611 115.578Z" fill="#5FB7D3"/>
<path d="M66.8999 174.144C60.7249 176.846 56.6725 184.661 58.2163 190.836C59.1811 194.888 62.5581 198.941 66.0315 200.388C70.7592 202.414 190.4 202.414 195.128 200.388C200.048 198.362 202.943 193.538 202.943 187.556C202.943 182.153 201.206 178.872 196.285 175.302C193.68 173.276 192.619 173.276 131.737 173.083C81.7585 172.89 69.2155 173.083 66.8999 174.144Z" fill="#5FB7D3"/>
<path d="M66.8999 232.035C60.7249 234.737 56.6725 242.552 58.2163 248.727C59.1811 252.779 62.5581 256.831 66.0315 258.279C70.7592 260.305 190.4 260.305 195.128 258.279C200.048 256.253 202.943 251.428 202.943 245.446C202.943 240.043 201.206 236.763 196.285 233.193C193.68 231.167 192.619 231.167 131.737 230.974C81.7585 230.781 69.2155 230.974 66.8999 232.035Z" fill="#5FB7D3"/>
<path d="M299.427 58.3631C293.252 61.0646 289.2 68.8799 290.744 75.0549C291.708 79.1072 295.085 83.1596 298.559 84.6068C303.287 86.633 422.927 86.633 427.655 84.6068C432.576 82.5807 435.47 77.7564 435.47 71.7744C435.47 66.3713 433.733 63.0908 428.813 59.5209C426.208 57.4947 425.146 57.4947 364.265 57.3018C314.286 57.1088 301.743 57.3018 299.427 58.3631Z" fill="#5FB7D3"/>
<path d="M299.427 116.254C293.252 118.955 289.2 126.771 290.744 132.946C291.708 136.998 295.085 141.05 298.559 142.497C303.287 144.524 422.927 144.524 427.655 142.497C432.576 140.471 435.47 135.647 435.47 129.665C435.47 124.262 433.733 120.981 428.813 117.412C426.208 115.385 425.146 115.385 364.265 115.192C314.286 114.999 301.743 115.192 299.427 116.254Z" fill="#5FB7D3"/>
<path d="M299.427 174.144C297.787 174.82 295.278 176.846 293.831 178.486C284.858 189.196 294.217 203.958 308.304 201.256C312.646 200.485 317.759 195.371 318.724 191.029C320.268 184.275 316.312 176.749 309.847 174.144C305.988 172.504 303.19 172.504 299.427 174.144Z" fill="#5FB7D3"/>
<path d="M359.248 173.469C356.064 174.337 352.108 177.618 350.274 180.802C348.827 183.503 348.634 187.556 348.345 213.027C347.959 245.543 348.538 251.139 352.783 254.998C357.704 259.629 357.897 259.629 392.052 259.629C426.208 259.629 426.401 259.629 431.321 254.998C435.567 251.139 436.146 245.543 435.76 213.027C435.47 180.802 435.277 180.03 429.006 175.495C425.822 173.276 425.725 173.276 393.499 173.083C375.746 173.083 360.309 173.179 359.248 173.469ZM406.042 216.211V230.684H392.052H378.062V216.211V201.739H392.052H406.042V216.211Z" fill="#5FB7D3"/>
<path d="M299.427 232.035C297.787 232.71 295.278 234.736 293.831 236.377C284.858 247.086 294.217 261.849 308.304 259.147C312.646 258.375 317.759 253.261 318.724 248.92C320.268 242.166 316.312 234.64 309.847 232.035C305.988 230.395 303.19 230.395 299.427 232.035Z" fill="#5FB7D3"/>
</g>
<defs>
<clipPath id="clip0_27_641">
<rect width="494" height="401" rx="30" fill="white"/>
</clipPath>
</defs>
</svg>
