<svg width="132" height="132" viewBox="0 0 132 132" fill="none" xmlns="http://www.w3.org/2000/svg">
<path d="M74.25 45.375C74.25 46.469 73.8154 47.5182 73.0418 48.2918C72.2682 49.0654 71.219 49.5 70.125 49.5C64.6549 49.5 59.4089 51.673 55.5409 55.5409C51.673 59.4089 49.5 64.6549 49.5 70.125C49.5 71.219 49.0654 72.2682 48.2918 73.0418C47.5182 73.8154 46.469 74.25 45.375 74.25C44.281 74.25 43.2318 73.8154 42.4582 73.0418C41.6846 72.2682 41.25 71.219 41.25 70.125C41.25 64.6549 39.077 59.4089 35.2091 55.5409C31.3411 51.673 26.0951 49.5 20.625 49.5C19.531 49.5 18.4818 49.0654 17.7082 48.2918C16.9346 47.5182 16.5 46.469 16.5 45.375C16.5 44.281 16.9346 43.2318 17.7082 42.4582C18.4818 41.6846 19.531 41.25 20.625 41.25C26.0951 41.25 31.3411 39.077 35.2091 35.2091C39.077 31.3411 41.25 26.0951 41.25 20.625C41.25 19.531 41.6846 18.4818 42.4582 17.7082C43.2318 16.9346 44.281 16.5 45.375 16.5C46.469 16.5 47.5182 16.9346 48.2918 17.7082C49.0654 18.4818 49.5 19.531 49.5 20.625C49.5 26.0951 51.673 31.3411 55.5409 35.2091C59.4089 39.077 64.6549 41.25 70.125 41.25C71.219 41.25 72.2682 41.6846 73.0418 42.4582C73.8154 43.2318 74.25 44.281 74.25 45.375Z" fill="#E1652E"/>
<path d="M78.375 99C78.375 100.094 77.9404 101.143 77.1668 101.917C76.3932 102.69 75.344 103.125 74.25 103.125C72.062 103.125 69.9635 103.994 68.4164 105.541C66.8692 107.089 66 109.187 66 111.375C66 112.469 65.5654 113.518 64.7918 114.292C64.0182 115.065 62.969 115.5 61.875 115.5C60.781 115.5 59.7318 115.065 58.9582 114.292C58.1846 113.518 57.75 112.469 57.75 111.375C57.75 109.187 56.8808 107.089 55.3336 105.541C53.7865 103.994 51.688 103.125 49.5 103.125C48.406 103.125 47.3568 102.69 46.5832 101.917C45.8096 101.143 45.375 100.094 45.375 99C45.375 97.906 45.8096 96.8568 46.5832 96.0832C47.3568 95.3096 48.406 94.875 49.5 94.875C51.688 94.875 53.7865 94.0058 55.3336 92.4586C56.8808 90.9115 57.75 88.813 57.75 86.625C57.75 85.531 58.1846 84.4818 58.9582 83.7082C59.7318 82.9346 60.781 82.5 61.875 82.5C62.969 82.5 64.0182 82.9346 64.7918 83.7082C65.5654 84.4818 66 85.531 66 86.625C66 88.813 66.8692 90.9115 68.4164 92.4586C69.9635 94.0058 72.062 94.875 74.25 94.875C75.344 94.875 76.3932 95.3096 77.1668 96.0832C77.9404 96.8568 78.375 97.906 78.375 99Z" fill="#E1652E"/>
<path d="M115.5 70.125C115.5 71.219 115.065 72.2682 114.292 73.0418C113.518 73.8154 112.469 74.25 111.375 74.25C106.999 74.25 102.802 75.9884 99.7077 79.0827C96.6134 82.1771 94.875 86.3739 94.875 90.75C94.875 91.844 94.4404 92.8932 93.6668 93.6668C92.8932 94.4404 91.844 94.875 90.75 94.875C89.656 94.875 88.6068 94.4404 87.8332 93.6668C87.0596 92.8932 86.625 91.844 86.625 90.75C86.625 86.3739 84.8866 82.1771 81.7923 79.0827C78.6979 75.9884 74.5011 74.25 70.125 74.25C69.031 74.25 67.9818 73.8154 67.2082 73.0418C66.4346 72.2682 66 71.219 66 70.125C66 69.031 66.4346 67.9818 67.2082 67.2082C67.9818 66.4346 69.031 66 70.125 66C74.5011 66 78.6979 64.2616 81.7923 61.1673C84.8866 58.0729 86.625 53.8761 86.625 49.5C86.625 48.406 87.0596 47.3568 87.8332 46.5832C88.6068 45.8096 89.656 45.375 90.75 45.375C91.844 45.375 92.8932 45.8096 93.6668 46.5832C94.4404 47.3568 94.875 48.406 94.875 49.5C94.875 53.8761 96.6134 58.0729 99.7077 61.1673C102.802 64.2616 106.999 66 111.375 66C112.469 66 113.518 66.4346 114.292 67.2082C115.065 67.9818 115.5 69.031 115.5 70.125Z" fill="#E1652E"/>
</svg>
