<svg width="82" height="82" viewBox="0 0 82 82" fill="none" xmlns="http://www.w3.org/2000/svg">
<path d="M46.125 28.1875C46.125 28.8671 45.855 29.5189 45.3745 29.9995C44.8939 30.48 44.2421 30.75 43.5625 30.75C40.1644 30.75 36.9055 32.0999 34.5027 34.5027C32.0999 36.9055 30.75 40.1644 30.75 43.5625C30.75 44.2421 30.48 44.8939 29.9995 45.3745C29.5189 45.855 28.8671 46.125 28.1875 46.125C27.5079 46.125 26.8561 45.855 26.3755 45.3745C25.895 44.8939 25.625 44.2421 25.625 43.5625C25.625 40.1644 24.2751 36.9055 21.8723 34.5027C19.4695 32.0999 16.2106 30.75 12.8125 30.75C12.1329 30.75 11.4811 30.48 11.0005 29.9995C10.52 29.5189 10.25 28.8671 10.25 28.1875C10.25 27.5079 10.52 26.8561 11.0005 26.3755C11.4811 25.895 12.1329 25.625 12.8125 25.625C16.2106 25.625 19.4695 24.2751 21.8723 21.8723C24.2751 19.4695 25.625 16.2106 25.625 12.8125C25.625 12.1329 25.895 11.4811 26.3755 11.0005C26.8561 10.52 27.5079 10.25 28.1875 10.25C28.8671 10.25 29.5189 10.52 29.9995 11.0005C30.48 11.4811 30.75 12.1329 30.75 12.8125C30.75 16.2106 32.0999 19.4695 34.5027 21.8723C36.9055 24.2751 40.1644 25.625 43.5625 25.625C44.2421 25.625 44.8939 25.895 45.3745 26.3755C45.855 26.8561 46.125 27.5079 46.125 28.1875Z" fill="#E1652E"/>
<path d="M48.6875 61.5C48.6875 62.1796 48.4175 62.8314 47.937 63.312C47.4564 63.7925 46.8046 64.0625 46.125 64.0625C44.7658 64.0625 43.4622 64.6025 42.5011 65.5636C41.54 66.5247 41 67.8283 41 69.1875C41 69.8671 40.73 70.5189 40.2495 70.9995C39.7689 71.48 39.1171 71.75 38.4375 71.75C37.7579 71.75 37.1061 71.48 36.6255 70.9995C36.145 70.5189 35.875 69.8671 35.875 69.1875C35.875 67.8283 35.335 66.5247 34.3739 65.5636C33.4128 64.6025 32.1092 64.0625 30.75 64.0625C30.0704 64.0625 29.4186 63.7925 28.938 63.312C28.4575 62.8314 28.1875 62.1796 28.1875 61.5C28.1875 60.8204 28.4575 60.1686 28.938 59.688C29.4186 59.2075 30.0704 58.9375 30.75 58.9375C32.1092 58.9375 33.4128 58.3975 34.3739 57.4364C35.335 56.4753 35.875 55.1717 35.875 53.8125C35.875 53.1329 36.145 52.4811 36.6255 52.0005C37.1061 51.52 37.7579 51.25 38.4375 51.25C39.1171 51.25 39.7689 51.52 40.2495 52.0005C40.73 52.4811 41 53.1329 41 53.8125C41 55.1717 41.54 56.4753 42.5011 57.4364C43.4622 58.3975 44.7658 58.9375 46.125 58.9375C46.8046 58.9375 47.4564 59.2075 47.937 59.688C48.4175 60.1686 48.6875 60.8204 48.6875 61.5Z" fill="#E1652E"/>
<path d="M71.75 43.5625C71.75 44.2421 71.48 44.8939 70.9995 45.3745C70.5189 45.855 69.8671 46.125 69.1875 46.125C66.469 46.125 63.8619 47.2049 61.9397 49.1272C60.0174 51.0494 58.9375 53.6565 58.9375 56.375C58.9375 57.0546 58.6675 57.7064 58.187 58.187C57.7064 58.6675 57.0546 58.9375 56.375 58.9375C55.6954 58.9375 55.0436 58.6675 54.563 58.187C54.0825 57.7064 53.8125 57.0546 53.8125 56.375C53.8125 53.6565 52.7326 51.0494 50.8103 49.1272C48.8881 47.2049 46.281 46.125 43.5625 46.125C42.8829 46.125 42.2311 45.855 41.7505 45.3745C41.27 44.8939 41 44.2421 41 43.5625C41 42.8829 41.27 42.2311 41.7505 41.7505C42.2311 41.27 42.8829 41 43.5625 41C46.281 41 48.8881 39.9201 50.8103 37.9978C52.7326 36.0756 53.8125 33.4685 53.8125 30.75C53.8125 30.0704 54.0825 29.4186 54.563 28.938C55.0436 28.4575 55.6954 28.1875 56.375 28.1875C57.0546 28.1875 57.7064 28.4575 58.187 28.938C58.6675 29.4186 58.9375 30.0704 58.9375 30.75C58.9375 33.4685 60.0174 36.0756 61.9397 37.9978C63.8619 39.9201 66.469 41 69.1875 41C69.8671 41 70.5189 41.27 70.9995 41.7505C71.48 42.2311 71.75 42.8829 71.75 43.5625Z" fill="#E1652E"/>
</svg>
