<svg width="27" height="23" viewBox="0 0 27 23" fill="none" xmlns="http://www.w3.org/2000/svg">
<path d="M4.10255 0.956128C3.78863 0.64781 3.28411 0.64781 2.97579 0.961734C2.66747 1.27005 2.66747 1.77457 2.97579 2.08289L22.9044 22.0227C23.1118 22.2301 23.4089 22.2973 23.6723 22.2245C23.8069 22.1908 23.9302 22.118 24.0311 22.0171C24.3394 21.7087 24.3394 21.2042 24.0311 20.8959L4.10255 0.956128ZM13.7389 16.529C10.7678 16.6635 8.32371 14.2194 8.46385 11.254C8.49749 10.57 8.66566 9.91977 8.94595 9.33117L5.95246 6.33207C4.39966 7.53171 2.84685 9.0733 1.18194 10.8896C0.873619 11.2315 0.868013 11.7417 1.17633 12.0836C4.81448 16.103 8.02099 19.5617 13.4922 19.5617C15.1572 19.5617 16.6931 19.1469 18.1058 18.4854L15.6673 16.0469C15.0731 16.3272 14.4228 16.4954 13.7389 16.529V16.529ZM25.825 12.05C26.1221 11.7248 26.1389 11.2315 25.853 10.8896C22.9212 7.3299 18.857 3.41707 13.4922 3.41707C11.861 3.41707 10.353 3.78705 8.8955 4.48217L11.3452 6.93189C11.9338 6.6516 12.5841 6.47782 13.268 6.4498C16.2391 6.31526 18.6832 8.75938 18.5431 11.7248C18.5094 12.4087 18.3412 13.059 18.061 13.6476L21.06 16.6467C22.91 15.2284 24.4964 13.5131 25.825 12.05V12.05Z" fill="#9A99A2"/>
</svg>
