<svg width="44" height="44" viewBox="0 0 44 44" fill="none" xmlns="http://www.w3.org/2000/svg">
<circle cx="22.1695" cy="21.8305" r="21.8305" fill="white"/>
<path d="M10.8501 30.3199C10.8501 28.8189 11.4464 27.3793 12.5078 26.3179C13.5692 25.2565 15.0088 24.6602 16.5099 24.6602H27.8294C29.3305 24.6602 30.77 25.2565 31.8315 26.3179C32.8929 27.3793 33.4892 28.8189 33.4892 30.3199C33.4892 31.0705 33.191 31.7902 32.6603 32.321C32.1296 32.8517 31.4098 33.1498 30.6593 33.1498H13.68C12.9294 33.1498 12.2097 32.8517 11.679 32.321C11.1482 31.7902 10.8501 31.0705 10.8501 30.3199Z" stroke="black" stroke-width="3.09949" stroke-linejoin="round"/>
<path d="M22.1696 19.0004C24.514 19.0004 26.4145 17.0999 26.4145 14.7556C26.4145 12.4112 24.514 10.5107 22.1696 10.5107C19.8253 10.5107 17.9248 12.4112 17.9248 14.7556C17.9248 17.0999 19.8253 19.0004 22.1696 19.0004Z" stroke="black" stroke-width="3.09949"/>
</svg>
