<svg width="44" height="44" viewBox="0 0 44 44" fill="none" xmlns="http://www.w3.org/2000/svg">
<circle cx="21.8305" cy="21.8305" r="21.8305" fill="white"/>
<path d="M13.9477 10.2061C14.1261 9.99321 14.2139 9.71885 14.1923 9.44193C14.1706 9.16501 14.0413 8.90761 13.832 8.72498C13.6227 8.54236 13.3501 8.44908 13.0728 8.46516C12.7955 8.48124 12.5356 8.6054 12.3488 8.81099L10.5207 10.9051C9.48411 12.093 8.89812 13.6076 8.86524 15.1839L8.78459 19.0311C8.78171 19.1705 8.80631 19.309 8.85698 19.4389C8.90765 19.5687 8.9834 19.6873 9.0799 19.7879C9.17641 19.8885 9.29178 19.9691 9.41943 20.0251C9.54708 20.0811 9.6845 20.1114 9.82386 20.1143C9.96322 20.1171 10.1018 20.0925 10.2316 20.0419C10.3615 19.9912 10.4801 19.9154 10.5807 19.8189C10.6813 19.7224 10.7618 19.6071 10.8178 19.4794C10.8738 19.3518 10.9041 19.2143 10.907 19.075L10.9862 15.2292C11.0089 14.1506 11.4101 13.1143 12.1196 12.3017L13.9477 10.2061Z" fill="black"/>
<path fill-rule="evenodd" clip-rule="evenodd" d="M13.6762 17.6872C13.7712 16.1734 14.4396 14.7528 15.5452 13.7144C16.6509 12.6761 18.1107 12.0981 19.6274 12.0982H20.4156V11.037C20.4156 10.6617 20.5646 10.3018 20.83 10.0365C21.0953 9.77114 21.4552 9.62207 21.8305 9.62207C22.2058 9.62207 22.5657 9.77114 22.831 10.0365C23.0964 10.3018 23.2454 10.6617 23.2454 11.037V12.0982H24.0336C25.5503 12.0981 27.0101 12.6761 28.1158 13.7144C29.2214 14.7528 29.8898 16.1734 29.9848 17.6872L30.2975 22.6876C30.4167 24.5942 31.0568 26.4315 32.1483 27.9993C32.3737 28.3234 32.5115 28.7004 32.5482 29.0935C32.5849 29.4867 32.5192 29.8826 32.3575 30.2428C32.1958 30.603 31.9437 30.9153 31.6256 31.1492C31.3075 31.3831 30.9343 31.5307 30.5423 31.5777L25.7216 32.155V33.6761C25.7216 34.7081 25.3116 35.6978 24.5819 36.4275C23.8522 37.1572 22.8625 37.5672 21.8305 37.5672C20.7985 37.5672 19.8088 37.1572 19.0791 36.4275C18.3494 35.6978 17.9394 34.7081 17.9394 33.6761V32.155L13.1187 31.5763C12.7269 31.5292 12.3539 31.3816 12.0361 31.1477C11.7182 30.9139 11.4662 30.6018 11.3045 30.2418C11.1429 29.8818 11.0771 29.4861 11.1136 29.0932C11.1501 28.7002 11.2876 28.3234 11.5127 27.9993C12.6041 26.4315 13.2442 24.5942 13.3635 22.6876L13.6762 17.6872ZM19.6274 14.2206C18.6505 14.2205 17.7103 14.5927 16.9982 15.2615C16.286 15.9302 15.8556 16.8452 15.7944 17.8202L15.4831 22.8206C15.3392 25.1142 14.5689 27.3244 13.256 29.2105C13.2396 29.234 13.2297 29.2612 13.227 29.2897C13.2243 29.3181 13.2291 29.3467 13.2407 29.3728C13.2524 29.3989 13.2706 29.4215 13.2936 29.4384C13.3166 29.4553 13.3436 29.466 13.372 29.4695L18.6596 30.1048C20.7665 30.3566 22.8945 30.3566 25.0014 30.1048L30.289 29.4695C30.3174 29.466 30.3444 29.4553 30.3674 29.4384C30.3903 29.4215 30.4086 29.3989 30.4202 29.3728C30.4319 29.3467 30.4367 29.3181 30.434 29.2897C30.4313 29.2612 30.4214 29.234 30.405 29.2105C29.0925 27.3243 28.3227 25.1141 28.1793 22.8206L27.8666 17.8202C27.8054 16.8452 27.375 15.9302 26.6628 15.2615C25.9507 14.5927 25.0105 14.2205 24.0336 14.2206H19.6274ZM21.8305 35.4448C20.8542 35.4448 20.0618 34.6524 20.0618 33.6761V32.6149H23.5992V33.6761C23.5992 34.6524 22.8068 35.4448 21.8305 35.4448Z" fill="black"/>
<path d="M29.8151 8.70873C29.6031 8.89377 29.4733 9.15542 29.4542 9.43614C29.4351 9.71687 29.5283 9.99369 29.7132 10.2057L31.5414 12.2999C32.2506 13.1131 32.6513 14.1499 32.6733 15.2288L32.754 19.0732C32.7598 19.3546 32.8772 19.6222 33.0803 19.8171C33.2834 20.012 33.5556 20.1183 33.8371 20.1125C34.1185 20.1066 34.3862 19.9893 34.5811 19.7861C34.776 19.583 34.8822 19.3108 34.8764 19.0293L34.7957 15.1835C34.7628 13.6072 34.1768 12.0927 33.1402 10.9047L31.3121 8.81061C31.1271 8.59863 30.8654 8.46882 30.5847 8.44972C30.304 8.43061 30.0272 8.52378 29.8151 8.70873Z" fill="black"/>
</svg>
