<svg width="541" height="468" viewBox="0 0 541 468" fill="none" xmlns="http://www.w3.org/2000/svg">
<g opacity="0.5">
<path d="M45.385 23.9977C40.89 25.0852 34.2925 28.9277 31.1025 32.4077C29.5075 34.1477 27.115 37.7727 25.8825 40.4552L23.5625 45.3127V185.673V325.96L26.245 331.47C29.5075 338.068 33.7125 342.128 40.455 345.318L45.3125 347.638H185.673H325.96L331.47 344.955C338.068 341.693 342.128 337.488 345.318 330.745L347.638 325.888V185.6V45.3127L345.318 40.4552C342.128 33.7127 338.068 29.5077 331.47 26.2452L325.96 23.5627L187.123 23.4177C104.908 23.4177 47.0525 23.6352 45.385 23.9977ZM324.365 35.6702C328.353 36.8302 334.37 42.8477 335.53 46.8352C336.835 51.1852 336.835 320.015 335.53 324.365C334.37 328.353 328.353 334.37 324.365 335.53C320.015 336.835 51.185 336.835 46.835 335.53C42.8475 334.37 36.83 328.353 35.67 324.365C34.365 320.015 34.365 51.1852 35.67 46.8352C36.7575 43.1377 42.8475 36.9027 46.4 35.7427C50.2425 34.5102 320.233 34.5102 324.365 35.6702Z" fill="white"/>
<path d="M55.4625 47.5604C51.475 49.0104 46.69 53.9404 45.3125 57.9279C43.645 62.7854 43.7175 102.66 45.385 107.518C46.7625 111.65 52.1275 116.798 56.405 118.03C58.29 118.61 66.1925 118.9 80.62 118.9C105.632 118.9 106.865 118.683 111.868 113.1C113.608 111.215 115.42 108.315 115.855 106.72C117.088 102.733 117.088 62.5679 115.855 58.5804C114.623 54.3029 109.475 48.9379 105.343 47.5604C100.558 45.9654 59.885 45.9654 55.4625 47.5604ZM103.313 59.8129L105.125 61.5529V82.6504V103.748L103.313 105.488L101.573 107.3H80.475H59.3775L57.6375 105.488L55.825 103.748V82.6504V61.5529L57.6375 59.8129L59.3775 58.0004H80.475H101.573L103.313 59.8129Z" fill="white"/>
<path d="M160.587 47.5604C156.6 49.0104 151.815 53.9404 150.438 57.9279C148.77 62.7854 148.843 102.66 150.51 107.518C151.887 111.65 157.252 116.798 161.53 118.03C163.415 118.61 171.317 118.9 185.745 118.9C210.757 118.9 211.99 118.683 216.993 113.1C218.733 111.215 220.545 108.315 220.98 106.72C221.56 104.835 221.85 96.9329 221.85 82.5054C221.85 58.2179 221.56 56.5504 216.703 51.6204C211.773 46.6904 210.177 46.4004 185.31 46.4729C168.055 46.4729 162.907 46.6904 160.587 47.5604ZM208.438 59.8129L210.25 61.5529V82.6504V103.748L208.438 105.488L206.698 107.3H185.6H164.502L162.762 105.488L160.95 103.748V82.6504V61.5529L162.762 59.8129L164.502 58.0004H185.6H206.698L208.438 59.8129Z" fill="white"/>
<path d="M265.713 47.5604C261.725 49.0104 256.94 53.9404 255.563 57.9279C254.113 62.1329 253.968 102.08 255.345 106.865C256.505 110.853 262.523 116.87 266.51 118.03C268.54 118.61 276.225 118.9 290.87 118.9C315.883 118.9 317.115 118.683 322.118 113.1C323.858 111.215 325.67 108.315 326.105 106.72C326.685 104.835 326.975 96.9329 326.975 82.5054C326.975 58.2179 326.685 56.5504 321.828 51.6204C316.898 46.6904 315.303 46.4004 290.435 46.4729C273.18 46.4729 268.033 46.6904 265.713 47.5604ZM313.563 59.8129L315.375 61.5529V82.6504V103.748L313.563 105.488L311.823 107.3H290.725H269.628L267.888 105.488L266.075 103.748V82.6504V61.5529L267.888 59.8129L269.628 58.0004H290.725H311.823L313.563 59.8129Z" fill="white"/>
<path d="M50.9675 135.938C47.7775 138.185 48.285 143.985 51.91 145.653C53.1425 146.233 63.2925 146.45 85.115 146.45C115.782 146.45 116.58 146.45 118.465 144.928C121.147 142.825 121.147 138.475 118.465 136.373C116.58 134.85 115.782 134.85 84.535 134.85C57.4925 134.85 52.2725 134.995 50.9675 135.938Z" fill="white"/>
<path d="M152.177 135.793C150.727 136.88 149.35 139.49 149.35 141.013C149.35 141.665 150.292 143.188 151.452 144.348L153.555 146.45H185.6H217.645L219.747 144.348C222.357 141.738 222.43 139.998 219.965 137.098L218.08 134.85H185.745C161.385 134.923 153.047 135.14 152.177 135.793Z" fill="white"/>
<path d="M252.735 136.373C250.053 138.475 250.053 142.825 252.735 144.928C254.62 146.45 255.418 146.45 286.085 146.45C307.908 146.45 318.058 146.233 319.29 145.653C321.538 144.638 322.843 141.52 322.19 138.91C321.175 134.778 321.538 134.85 286.665 134.85C255.418 134.85 254.62 134.85 252.735 136.373Z" fill="white"/>
<path d="M71.9925 161.82C70.035 162.763 68.585 166.098 69.2375 168.2C69.5275 168.998 70.3975 170.375 71.2675 171.1C72.7175 172.478 73.8775 172.55 94.685 172.55C115.71 172.55 116.58 172.478 118.465 171.028C121.148 168.925 121.148 164.575 118.465 162.473C116.58 161.023 115.71 160.95 95.0475 161.023C81.635 161.023 73.0075 161.313 71.9925 161.82Z" fill="white"/>
<path d="M172.115 162.618C170.665 163.85 170.157 165.01 170.157 166.75C170.157 168.49 170.665 169.65 172.115 170.883L174.072 172.55H196.112H218.08L219.965 170.303C222.43 167.403 222.357 165.663 219.747 163.053L217.645 160.95H195.822H174.072L172.115 162.618Z" fill="white"/>
<path d="M273.035 162.473C270.352 164.575 270.352 168.925 273.035 171.028C274.92 172.478 275.79 172.55 296.815 172.55C314.94 172.55 318.927 172.333 320.232 171.463C323.422 169.215 322.915 163.415 319.29 161.748C318.057 161.24 310.445 160.95 296.235 160.95C275.79 160.95 274.92 161.023 273.035 162.473Z" fill="white"/>
<path d="M55.7525 198.215C50.8225 199.955 47.125 203.725 45.3125 208.873C43.8625 212.86 43.7175 253.025 45.095 257.665C46.255 261.653 52.2725 267.67 56.26 268.83C58.29 269.41 65.975 269.7 80.62 269.7C105.632 269.7 106.865 269.483 111.867 263.9C113.607 262.015 115.42 259.115 115.855 257.52C116.435 255.635 116.725 247.733 116.725 233.305C116.725 208.438 116.507 207.205 110.997 202.058C109.04 200.245 106.212 198.433 104.69 197.998C100.412 196.838 59.0875 196.983 55.7525 198.215ZM103.312 210.613L105.125 212.353V233.45V254.548L103.312 256.288L101.572 258.1H80.475H59.3775L57.6375 256.288L55.825 254.548V233.45V212.353L57.6375 210.613L59.3775 208.8H80.475H101.572L103.312 210.613Z" fill="white"/>
<path d="M160.66 198.288C156.745 199.665 151.815 204.74 150.438 208.728C148.988 212.933 148.843 252.88 150.22 257.665C151.38 261.653 157.398 267.67 161.385 268.83C163.415 269.41 171.1 269.7 185.745 269.7C210.758 269.7 211.99 269.483 216.993 263.9C218.733 262.015 220.545 259.115 220.98 257.52C221.56 255.635 221.85 247.733 221.85 233.305C221.85 208.438 221.633 207.205 216.123 202.058C214.165 200.245 211.338 198.433 209.815 197.998C205.393 196.765 164.213 196.983 160.66 198.288ZM208.438 210.613L210.25 212.353V233.45V254.548L208.438 256.288L206.698 258.1H185.6H164.503L162.763 256.288L160.95 254.548V233.45V212.353L162.763 210.613L164.503 208.8H185.6H206.698L208.438 210.613Z" fill="white"/>
<path d="M265.785 198.215C261.87 199.665 256.94 204.74 255.563 208.728C254.113 212.933 253.968 252.88 255.345 257.665C256.505 261.653 262.523 267.67 266.51 268.83C268.54 269.41 276.225 269.7 290.87 269.7C315.883 269.7 317.115 269.483 322.118 263.9C323.858 262.015 325.67 259.115 326.105 257.52C326.685 255.635 326.975 247.733 326.975 233.305C326.975 209.308 326.685 207.423 322.118 202.71C317.043 197.49 317.623 197.563 291.813 197.418C273.325 197.273 268.033 197.418 265.785 198.215ZM313.563 210.613L315.375 212.353V233.45V254.548L313.563 256.288L311.823 258.1H290.725H269.628L267.888 256.288L266.075 254.548V233.45V212.353L267.888 210.613L269.628 208.8H290.725H311.823L313.563 210.613Z" fill="white"/>
<path d="M46.6175 288.188C43.4275 290.435 43.935 296.235 47.56 297.903C48.7925 298.483 58.9425 298.7 80.765 298.7C111.433 298.7 112.23 298.7 114.115 297.178C116.798 295.075 116.798 290.725 114.115 288.623C112.23 287.1 111.433 287.1 80.185 287.1C53.1425 287.1 47.9225 287.245 46.6175 288.188Z" fill="white"/>
<path d="M146.812 289.42C144.565 292.103 144.782 294.568 147.61 297.033L149.422 298.7H181.322H213.295L215.397 296.598C217.645 294.278 217.935 292.973 216.63 290.508C214.817 287.1 215.252 287.173 181.105 287.1H148.77L146.812 289.42Z" fill="white"/>
<path d="M248.385 288.623C245.703 290.725 245.703 295.075 248.385 297.178C250.27 298.7 251.068 298.7 281.735 298.7C303.195 298.7 313.708 298.41 314.868 297.903C318.42 296.308 319.29 291.668 316.463 288.913L314.723 287.1H282.533C251.068 287.1 250.27 287.1 248.385 288.623Z" fill="white"/>
<path d="M67.6425 314.07C65.685 315.013 64.235 318.348 64.8875 320.45C65.1775 321.248 66.0475 322.625 66.9175 323.35C68.3675 324.728 69.5275 324.8 90.335 324.8C111.36 324.8 112.23 324.728 114.115 323.278C116.797 321.175 116.797 316.825 114.115 314.723C112.23 313.273 111.36 313.2 90.6975 313.273C77.285 313.273 68.6575 313.563 67.6425 314.07Z" fill="white"/>
<path d="M167.837 314.795C165.155 317.115 165.155 320.813 167.765 323.133L169.722 324.8H191.617C214.6 324.728 214.89 324.728 216.63 321.393C217.935 318.928 217.645 317.623 215.398 315.303L213.295 313.2H191.472C169.94 313.2 169.722 313.2 167.837 314.795Z" fill="white"/>
<path d="M268.685 314.723C266.002 316.825 266.002 321.175 268.685 323.278C270.57 324.728 271.44 324.8 292.682 324.8H314.722L316.462 322.988C318.42 321.103 318.71 319.29 317.477 316.608C316.027 313.418 314.36 313.2 291.885 313.2C271.44 313.2 270.57 313.273 268.685 314.723Z" fill="white"/>
</g>
<path d="M407.4 69.1C407.4 69.9752 407.052 70.8146 406.433 71.4335C405.815 72.0523 404.975 72.4 404.1 72.4C399.724 72.4 395.527 74.1384 392.433 77.2327C389.338 80.3271 387.6 84.5239 387.6 88.9C387.6 89.7752 387.252 90.6146 386.633 91.2335C386.015 91.8523 385.175 92.2 384.3 92.2C383.425 92.2 382.585 91.8523 381.967 91.2335C381.348 90.6146 381 89.7752 381 88.9C381 84.5239 379.262 80.3271 376.167 77.2327C373.073 74.1384 368.876 72.4 364.5 72.4C363.625 72.4 362.785 72.0523 362.167 71.4335C361.548 70.8146 361.2 69.9752 361.2 69.1C361.2 68.2248 361.548 67.3854 362.167 66.7665C362.785 66.1477 363.625 65.8 364.5 65.8C368.876 65.8 373.073 64.0616 376.167 60.9673C379.262 57.8729 381 53.6761 381 49.3C381 48.4248 381.348 47.5854 381.967 46.9665C382.585 46.3477 383.425 46 384.3 46C385.175 46 386.015 46.3477 386.633 46.9665C387.252 47.5854 387.6 48.4248 387.6 49.3C387.6 53.6761 389.338 57.8729 392.433 60.9673C395.527 64.0616 399.724 65.8 404.1 65.8C404.975 65.8 405.815 66.1477 406.433 66.7665C407.052 67.3854 407.4 68.2248 407.4 69.1Z" fill="#E1652E"/>
<path d="M410.7 112C410.7 112.875 410.352 113.714 409.733 114.333C409.115 114.952 408.275 115.3 407.4 115.3C405.65 115.3 403.971 115.995 402.733 117.233C401.495 118.471 400.8 120.149 400.8 121.9C400.8 122.775 400.452 123.614 399.833 124.233C399.215 124.852 398.375 125.2 397.5 125.2C396.625 125.2 395.785 124.852 395.167 124.233C394.548 123.614 394.2 122.775 394.2 121.9C394.2 120.149 393.505 118.471 392.267 117.233C391.029 115.995 389.35 115.3 387.6 115.3C386.725 115.3 385.885 114.952 385.267 114.333C384.648 113.714 384.3 112.875 384.3 112C384.3 111.125 384.648 110.285 385.267 109.666C385.885 109.047 386.725 108.7 387.6 108.7C389.35 108.7 391.029 108.004 392.267 106.767C393.505 105.529 394.2 103.85 394.2 102.1C394.2 101.225 394.548 100.385 395.167 99.7663C395.785 99.1475 396.625 98.7998 397.5 98.7998C398.375 98.7998 399.215 99.1475 399.833 99.7663C400.452 100.385 400.8 101.225 400.8 102.1C400.8 103.85 401.495 105.529 402.733 106.767C403.971 108.004 405.65 108.7 407.4 108.7C408.275 108.7 409.115 109.047 409.733 109.666C410.352 110.285 410.7 111.125 410.7 112Z" fill="#E1652E"/>
<path d="M440.4 88.9001C440.4 89.7753 440.052 90.6147 439.433 91.2336C438.815 91.8524 437.975 92.2001 437.1 92.2001C433.599 92.2001 430.242 93.5908 427.766 96.0663C425.291 98.5418 423.9 101.899 423.9 105.4C423.9 106.275 423.552 107.115 422.933 107.734C422.315 108.352 421.475 108.7 420.6 108.7C419.725 108.7 418.885 108.352 418.267 107.734C417.648 107.115 417.3 106.275 417.3 105.4C417.3 101.899 415.909 98.5418 413.434 96.0663C410.958 93.5908 407.601 92.2001 404.1 92.2001C403.225 92.2001 402.385 91.8524 401.767 91.2336C401.148 90.6147 400.8 89.7753 400.8 88.9001C400.8 88.0249 401.148 87.1855 401.767 86.5666C402.385 85.9478 403.225 85.6001 404.1 85.6001C407.601 85.6001 410.958 84.2094 413.434 81.7339C415.909 79.2584 417.3 75.901 417.3 72.4001C417.3 71.5249 417.648 70.6855 418.267 70.0666C418.885 69.4478 419.725 69.1001 420.6 69.1001C421.475 69.1001 422.315 69.4478 422.933 70.0666C423.552 70.6855 423.9 71.5249 423.9 72.4001C423.9 75.901 425.291 79.2584 427.766 81.7339C430.242 84.2094 433.599 85.6001 437.1 85.6001C437.975 85.6001 438.815 85.9478 439.433 86.5666C440.052 87.1855 440.4 88.0249 440.4 88.9001Z" fill="#E1652E"/>
<path d="M457.7 22.5502C457.7 23.0939 457.484 23.6153 457.1 23.9998C456.715 24.3842 456.194 24.6002 455.65 24.6002C452.932 24.6002 450.324 25.6801 448.402 27.6024C446.48 29.5246 445.4 32.1317 445.4 34.8502C445.4 35.3939 445.184 35.9153 444.8 36.2998C444.415 36.6842 443.894 36.9002 443.35 36.9002C442.806 36.9002 442.285 36.6842 441.9 36.2998C441.516 35.9153 441.3 35.3939 441.3 34.8502C441.3 32.1317 440.22 29.5246 438.298 27.6024C436.376 25.6801 433.768 24.6002 431.05 24.6002C430.506 24.6002 429.985 24.3842 429.6 23.9998C429.216 23.6153 429 23.0939 429 22.5502C429 22.0065 429.216 21.4851 429.6 21.1006C429.985 20.7162 430.506 20.5002 431.05 20.5002C433.768 20.5002 436.376 19.4203 438.298 17.498C440.22 15.5758 441.3 12.9687 441.3 10.2502C441.3 9.7065 441.516 9.18508 441.9 8.80063C442.285 8.41618 442.806 8.2002 443.35 8.2002C443.894 8.2002 444.415 8.41618 444.8 8.80063C445.184 9.18508 445.4 9.7065 445.4 10.2502C445.4 12.9687 446.48 15.5758 448.402 17.498C450.324 19.4203 452.932 20.5002 455.65 20.5002C456.194 20.5002 456.715 20.7162 457.1 21.1006C457.484 21.4851 457.7 22.0065 457.7 22.5502Z" fill="#E1652E"/>
<path d="M459.75 49.2C459.75 49.7437 459.534 50.2651 459.15 50.6496C458.765 51.034 458.244 51.25 457.7 51.25C456.613 51.25 455.57 51.682 454.801 52.4509C454.032 53.2198 453.6 54.2626 453.6 55.35C453.6 55.8937 453.384 56.4151 453 56.7996C452.615 57.184 452.094 57.4 451.55 57.4C451.006 57.4 450.485 57.184 450.1 56.7996C449.716 56.4151 449.5 55.8937 449.5 55.35C449.5 54.2626 449.068 53.2198 448.299 52.4509C447.53 51.682 446.487 51.25 445.4 51.25C444.856 51.25 444.335 51.034 443.95 50.6496C443.566 50.2651 443.35 49.7437 443.35 49.2C443.35 48.6563 443.566 48.1349 443.95 47.7504C444.335 47.366 444.856 47.15 445.4 47.15C446.487 47.15 447.53 46.718 448.299 45.9491C449.068 45.1802 449.5 44.1374 449.5 43.05C449.5 42.5063 449.716 41.9849 450.1 41.6004C450.485 41.216 451.006 41 451.55 41C452.094 41 452.615 41.216 453 41.6004C453.384 41.9849 453.6 42.5063 453.6 43.05C453.6 44.1374 454.032 45.1802 454.801 45.9491C455.57 46.718 456.613 47.15 457.7 47.15C458.244 47.15 458.765 47.366 459.15 47.7504C459.534 48.1349 459.75 48.6563 459.75 49.2Z" fill="#E1652E"/>
<path d="M478.2 34.8503C478.2 35.394 477.984 35.9154 477.6 36.2999C477.215 36.6843 476.694 36.9003 476.15 36.9003C473.975 36.9003 471.89 37.7642 470.352 39.302C468.814 40.8398 467.95 42.9255 467.95 45.1003C467.95 45.644 467.734 46.1654 467.35 46.5499C466.965 46.9343 466.444 47.1503 465.9 47.1503C465.356 47.1503 464.835 46.9343 464.45 46.5499C464.066 46.1654 463.85 45.644 463.85 45.1003C463.85 42.9255 462.986 40.8398 461.448 39.302C459.91 37.7642 457.825 36.9003 455.65 36.9003C455.106 36.9003 454.585 36.6843 454.2 36.2999C453.816 35.9154 453.6 35.394 453.6 34.8503C453.6 34.3066 453.816 33.7852 454.2 33.4007C454.585 33.0163 455.106 32.8003 455.65 32.8003C457.825 32.8003 459.91 31.9364 461.448 30.3986C462.986 28.8608 463.85 26.7751 463.85 24.6003C463.85 24.0566 464.066 23.5352 464.45 23.1507C464.835 22.7663 465.356 22.5503 465.9 22.5503C466.444 22.5503 466.965 22.7663 467.35 23.1507C467.734 23.5352 467.95 24.0566 467.95 24.6003C467.95 26.7751 468.814 28.8608 470.352 30.3986C471.89 31.9364 473.975 32.8003 476.15 32.8003C476.694 32.8003 477.215 33.0163 477.6 33.4007C477.984 33.7852 478.2 34.3066 478.2 34.8503Z" fill="#E1652E"/>
<g clip-path="url(#clip0_31_1097)">
<rect x="145.6" y="146.4" width="395.2" height="320.8" rx="24" fill="#131314"/>
<path d="M152.807 146.778C149.643 148.168 146.401 152.104 145.86 155.192C145.629 156.581 145.552 225.432 145.629 308.332L145.86 459.002L147.481 461.086C148.33 462.243 150.029 463.942 151.186 464.791L153.27 466.412H343.075H532.879L534.963 464.791C536.12 463.942 537.819 462.243 538.668 461.086L540.289 459.002V306.248V153.493L538.668 151.409C537.819 150.252 536.12 148.553 534.963 147.704C532.879 146.083 532.261 146.083 455.151 145.852C367.697 145.62 370.09 145.543 358.744 151.101C354.961 152.953 350.485 156.041 347.706 158.588L343.075 162.833L338.443 158.588C332.5 153.108 323.083 148.399 315.055 146.855C306.488 145.234 156.435 145.157 152.807 146.778ZM316.059 171.247C322.234 174.103 325.707 177.499 328.563 183.365L331.11 188.537L331.342 290.656L331.496 392.698L327.56 390.768C325.399 389.61 320.999 388.066 317.757 387.217C312.2 385.828 308.649 385.751 240.261 385.751H168.631V277.302V168.854L240.261 169.008L311.814 169.24L316.059 171.247ZM517.518 277.302V385.751H445.888C377.5 385.751 373.95 385.828 368.392 387.217C365.15 388.066 360.75 389.61 358.589 390.768L354.653 392.698L354.807 290.656L355.039 188.537L357.045 184.291C359.67 178.811 362.449 175.492 366.848 172.945C373.718 168.931 372.406 168.931 447.509 168.931L517.518 168.854V277.302ZM314.824 410.528C320.381 412.535 326.248 417.938 328.872 423.341C330.647 426.892 331.033 428.898 331.342 435.614L331.728 443.641H250.141H168.631V426.274V408.907H239.643C309.344 408.907 310.656 408.907 314.824 410.528ZM517.518 426.274V443.641H436.008H354.498L354.807 435.691C355.039 428.976 355.347 427.123 357.2 423.418C359.824 418.015 365.69 412.612 371.094 410.528C375.03 409.061 377.037 408.984 446.351 408.984L517.518 408.907V426.274Z" fill="#5FB7D3"/>
<path d="M199.12 193.091C195.955 194.48 192.713 198.417 192.173 201.504C191.941 202.894 191.787 215.244 191.941 229.06C192.173 254.146 192.173 254.146 194.025 256.771C197.267 261.325 198.271 261.479 226.521 261.479C254.772 261.479 255.775 261.325 259.017 256.771L260.87 254.146V226.976C260.87 200.81 260.793 199.806 259.249 197.722C258.4 196.564 256.702 194.866 255.544 194.017C253.537 192.473 252.302 192.396 227.448 192.242C206.993 192.087 200.895 192.242 199.12 193.091ZM238.1 226.745V238.323H226.521H214.943V226.745V215.167H226.521H238.1V226.745Z" fill="#5FB7D3"/>
<path d="M293.289 192.551C287.963 194.017 284.875 198.803 285.338 204.901C285.879 210.998 290.355 215.167 296.376 215.167C302.397 215.167 306.874 210.998 307.414 204.901C307.8 200.038 306.488 196.796 303.091 194.403C300.699 192.782 295.913 191.856 293.289 192.551Z" fill="#5FB7D3"/>
<path d="M293.289 238.863C287.963 240.33 284.875 245.115 285.338 251.213C285.879 257.311 290.355 261.479 296.376 261.479C302.397 261.479 306.874 257.311 307.414 251.213C307.8 246.35 306.488 243.108 303.091 240.716C300.699 239.095 295.913 238.168 293.289 238.863Z" fill="#5FB7D3"/>
<path d="M199.12 285.716C194.18 287.877 190.938 294.129 192.173 299.069C192.945 302.311 195.646 305.553 198.425 306.711C202.207 308.332 297.92 308.332 301.702 306.711C305.639 305.09 307.954 301.231 307.954 296.445C307.954 292.123 306.565 289.498 302.628 286.642C300.544 285.021 299.695 285.021 250.99 284.867C211.007 284.713 200.972 284.867 199.12 285.716Z" fill="#5FB7D3"/>
<path d="M199.12 332.029C194.18 334.19 190.938 340.442 192.173 345.382C192.945 348.624 195.646 351.866 198.425 353.024C202.207 354.644 297.92 354.644 301.702 353.024C305.639 351.403 307.954 347.543 307.954 342.758C307.954 338.435 306.565 335.811 302.628 332.955C300.544 331.334 299.695 331.334 250.99 331.179C211.007 331.025 200.972 331.179 199.12 332.029Z" fill="#5FB7D3"/>
<path d="M385.142 193.091C380.202 195.252 376.96 201.504 378.195 206.444C378.967 209.686 381.668 212.928 384.447 214.086C388.229 215.707 483.942 215.707 487.724 214.086C491.661 212.465 493.976 208.605 493.976 203.82C493.976 199.497 492.587 196.873 488.65 194.017C486.566 192.396 485.717 192.396 437.012 192.242C397.029 192.087 386.994 192.242 385.142 193.091Z" fill="#5FB7D3"/>
<path d="M385.142 239.404C380.202 241.565 376.96 247.817 378.195 252.757C378.967 255.999 381.668 259.241 384.447 260.399C388.229 262.019 483.942 262.019 487.724 260.399C491.661 258.778 493.976 254.918 493.976 250.133C493.976 245.81 492.587 243.186 488.65 240.33C486.566 238.709 485.717 238.709 437.012 238.554C397.029 238.4 386.994 238.554 385.142 239.404Z" fill="#5FB7D3"/>
<path d="M385.142 285.716C383.83 286.256 381.823 287.877 380.665 289.189C373.486 297.757 380.974 309.566 392.243 307.405C395.716 306.788 399.807 302.697 400.579 299.223C401.814 293.82 398.65 287.8 393.478 285.716C390.39 284.403 388.152 284.403 385.142 285.716Z" fill="#5FB7D3"/>
<path d="M432.998 285.176C430.451 285.87 427.286 288.495 425.82 291.042C424.662 293.203 424.507 296.445 424.276 316.822C423.967 342.835 424.43 347.312 427.826 350.399C431.763 354.104 431.917 354.104 459.242 354.104C486.566 354.104 486.72 354.104 490.657 350.399C494.053 347.312 494.516 342.835 494.208 316.822C493.976 291.042 493.822 290.424 488.805 286.797C486.257 285.021 486.18 285.021 460.4 284.867C446.197 284.867 433.847 284.944 432.998 285.176ZM470.434 319.37V330.948H459.242H448.05V319.37V307.792H459.242H470.434V319.37Z" fill="#5FB7D3"/>
<path d="M385.142 332.028C383.83 332.568 381.823 334.189 380.665 335.501C373.486 344.069 380.974 355.879 392.243 353.718C395.716 353.1 399.807 349.009 400.579 345.536C401.814 340.133 398.65 334.112 393.478 332.028C390.39 330.716 388.152 330.716 385.142 332.028Z" fill="#5FB7D3"/>
</g>
<defs>
<clipPath id="clip0_31_1097">
<rect x="145.6" y="146.4" width="395.2" height="320.8" rx="24" fill="white"/>
</clipPath>
</defs>
</svg>
