<svg width="26" height="26" viewBox="0 0 26 26" fill="none" xmlns="http://www.w3.org/2000/svg">
<path fill-rule="evenodd" clip-rule="evenodd" d="M24.8818 13.4033C24.8818 12.531 24.8035 11.6923 24.6581 10.8872H13.0731V15.6453H19.6931C19.408 17.1829 18.5413 18.4857 17.2386 19.3579V22.4443H21.2139C23.5399 20.3028 24.8818 17.1494 24.8818 13.4033Z" fill="#4285F4"/>
<path fill-rule="evenodd" clip-rule="evenodd" d="M13.0731 25.424C16.3943 25.424 19.1787 24.3225 21.2139 22.4439L17.2386 19.3575C16.1371 20.0956 14.7281 20.5317 13.0731 20.5317C9.86935 20.5317 7.15761 18.3679 6.19033 15.4604H2.08078V18.6474C4.1048 22.6675 8.26467 25.424 13.0731 25.424Z" fill="#34A853"/>
<path fill-rule="evenodd" clip-rule="evenodd" d="M6.19033 15.4604C5.94431 14.7223 5.80453 13.934 5.80453 13.1233C5.80453 12.3125 5.94431 11.5242 6.19033 10.7861V7.59912H2.08078C1.24768 9.25971 0.77243 11.1384 0.77243 13.1233C0.77243 15.1081 1.24768 16.9868 2.08078 18.6474L6.19033 15.4604Z" fill="#FBBC05"/>
<path fill-rule="evenodd" clip-rule="evenodd" d="M13.0731 5.71508C14.8791 5.71508 16.5005 6.3357 17.7753 7.55459L21.3034 4.02653C19.1732 2.04164 16.3887 0.822754 13.0731 0.822754C8.26467 0.822754 4.1048 3.57923 2.08078 7.59932L6.19033 10.7863C7.15761 7.87888 9.86935 5.71508 13.0731 5.71508Z" fill="#EA4335"/>
</svg>
