<svg width="464" height="464" viewBox="0 0 464 464" fill="none" xmlns="http://www.w3.org/2000/svg">
<g opacity="0.5">
<path d="M56.7313 29.9969C51.1125 31.3562 42.8656 36.1594 38.8781 40.5094C36.8844 42.6844 33.8938 47.2156 32.3531 50.5687L29.4531 56.6406V232.091V407.45L32.8063 414.337C36.8844 422.584 42.1406 427.659 50.5688 431.647L56.6406 434.547H232.091H407.45L414.338 431.194C422.584 427.116 427.659 421.859 431.647 413.431L434.547 407.359V232V56.6406L431.647 50.5687C427.659 42.1406 422.584 36.8844 414.338 32.8062L407.45 29.4531L233.903 29.2719C131.134 29.2719 58.8156 29.5437 56.7313 29.9969ZM405.456 44.5875C410.441 46.0375 417.963 53.5594 419.413 58.5437C421.044 63.9812 421.044 400.019 419.413 405.456C417.963 410.441 410.441 417.962 405.456 419.412C400.019 421.044 63.9813 421.044 58.5438 419.412C53.5594 417.962 46.0375 410.441 44.5875 405.456C42.9563 400.019 42.9563 63.9812 44.5875 58.5437C45.9469 53.9219 53.5594 46.1281 58 44.6781C62.8031 43.1375 400.291 43.1375 405.456 44.5875Z" fill="white"/>
<path d="M69.3281 59.45C64.3437 61.2625 58.3625 67.425 56.6406 72.4094C54.5563 78.4812 54.6469 128.325 56.7312 134.397C58.4531 139.562 65.1594 145.997 70.5062 147.537C72.8625 148.262 82.7406 148.625 100.775 148.625C132.041 148.625 133.581 148.353 139.834 141.375C142.009 139.019 144.275 135.394 144.819 133.4C146.359 128.416 146.359 78.2094 144.819 73.225C143.278 67.8781 136.844 61.1719 131.678 59.45C125.697 57.4562 74.8562 57.4562 69.3281 59.45ZM129.141 74.7656L131.406 76.9406V103.312V129.684L129.141 131.859L126.966 134.125H100.594H74.2219L72.0469 131.859L69.7812 129.684V103.312V76.9406L72.0469 74.7656L74.2219 72.5H100.594H126.966L129.141 74.7656Z" fill="white"/>
<path d="M200.734 59.45C195.75 61.2625 189.769 67.425 188.047 72.4094C185.963 78.4812 186.053 128.325 188.137 134.397C189.859 139.562 196.566 145.997 201.912 147.537C204.269 148.262 214.147 148.625 232.181 148.625C263.447 148.625 264.987 148.353 271.241 141.375C273.416 139.019 275.681 135.394 276.225 133.4C276.95 131.044 277.312 121.166 277.312 103.131C277.312 72.7719 276.95 70.6875 270.878 64.525C264.716 58.3625 262.722 58 231.637 58.0906C210.069 58.0906 203.634 58.3625 200.734 59.45ZM260.547 74.7656L262.812 76.9406V103.312V129.684L260.547 131.859L258.372 134.125H232H205.628L203.453 131.859L201.187 129.684V103.312V76.9406L203.453 74.7656L205.628 72.5H232H258.372L260.547 74.7656Z" fill="white"/>
<path d="M332.141 59.45C327.156 61.2625 321.175 67.425 319.453 72.4094C317.641 77.6656 317.459 127.6 319.181 133.581C320.631 138.566 328.153 146.087 333.137 147.537C335.675 148.262 345.281 148.625 363.588 148.625C394.853 148.625 396.394 148.353 402.647 141.375C404.822 139.019 407.088 135.394 407.631 133.4C408.356 131.044 408.719 121.166 408.719 103.131C408.719 72.7719 408.356 70.6875 402.284 64.525C396.122 58.3625 394.128 58 363.044 58.0906C341.475 58.0906 335.041 58.3625 332.141 59.45ZM391.953 74.7656L394.219 76.9406V103.312V129.684L391.953 131.859L389.778 134.125H363.406H337.034L334.859 131.859L332.594 129.684V103.312V76.9406L334.859 74.7656L337.034 72.5H363.406H389.778L391.953 74.7656Z" fill="white"/>
<path d="M63.7094 169.922C59.7219 172.731 60.3563 179.981 64.8875 182.066C66.4281 182.791 79.1156 183.062 106.394 183.062C144.728 183.062 145.725 183.062 148.081 181.159C151.434 178.531 151.434 173.094 148.081 170.466C145.725 168.562 144.728 168.562 105.669 168.562C71.8656 168.562 65.3406 168.744 63.7094 169.922Z" fill="white"/>
<path d="M190.222 169.741C188.409 171.1 186.688 174.362 186.688 176.266C186.688 177.081 187.866 178.984 189.316 180.434L191.944 183.062H232H272.056L274.684 180.434C277.947 177.172 278.037 174.997 274.956 171.372L272.6 168.562H232.181C201.731 168.653 191.309 168.925 190.222 169.741Z" fill="white"/>
<path d="M315.919 170.466C312.566 173.094 312.566 178.531 315.919 181.159C318.275 183.062 319.272 183.062 357.606 183.062C384.884 183.062 397.572 182.791 399.113 182.066C401.922 180.797 403.553 176.9 402.738 173.637C401.469 168.472 401.922 168.562 358.331 168.562C319.272 168.562 318.275 168.562 315.919 170.466Z" fill="white"/>
<path d="M89.9906 202.275C87.5437 203.453 85.7312 207.622 86.5469 210.25C86.9094 211.247 87.9969 212.969 89.0844 213.875C90.8969 215.597 92.3469 215.688 118.356 215.688C144.637 215.688 145.725 215.597 148.081 213.784C151.434 211.156 151.434 205.719 148.081 203.091C145.725 201.278 144.637 201.187 118.809 201.278C102.044 201.278 91.2594 201.641 89.9906 202.275Z" fill="white"/>
<path d="M215.144 203.272C213.331 204.812 212.697 206.262 212.697 208.437C212.697 210.612 213.331 212.062 215.144 213.603L217.591 215.688H245.141H272.6L274.956 212.878C278.037 209.253 277.947 207.078 274.684 203.816L272.056 201.187H244.778H217.591L215.144 203.272Z" fill="white"/>
<path d="M341.294 203.091C337.941 205.719 337.941 211.156 341.294 213.784C343.65 215.597 344.737 215.688 371.019 215.688C393.675 215.688 398.659 215.416 400.291 214.328C404.278 211.519 403.644 204.269 399.112 202.184C397.572 201.55 388.056 201.187 370.294 201.187C344.737 201.187 343.65 201.278 341.294 203.091Z" fill="white"/>
<path d="M69.6906 247.769C63.5281 249.944 58.9062 254.656 56.6406 261.091C54.8281 266.075 54.6469 316.281 56.3687 322.081C57.8187 327.066 65.3406 334.587 70.325 336.037C72.8625 336.762 82.4687 337.125 100.775 337.125C132.041 337.125 133.581 336.853 139.834 329.875C142.009 327.519 144.275 323.894 144.819 321.9C145.544 319.544 145.906 309.666 145.906 291.631C145.906 260.547 145.634 259.006 138.747 252.572C136.3 250.306 132.766 248.041 130.863 247.497C125.516 246.047 73.8594 246.228 69.6906 247.769ZM129.141 263.266L131.406 265.441V291.812V318.184L129.141 320.359L126.966 322.625H100.594H74.2219L72.0469 320.359L69.7812 318.184V291.812V265.441L72.0469 263.266L74.2219 261H100.594H126.966L129.141 263.266Z" fill="white"/>
<path d="M200.825 247.859C195.931 249.581 189.769 255.925 188.047 260.909C186.234 266.166 186.053 316.1 187.775 322.081C189.225 327.066 196.747 334.588 201.731 336.038C204.269 336.763 213.875 337.125 232.181 337.125C263.447 337.125 264.988 336.853 271.241 329.875C273.416 327.519 275.681 323.894 276.225 321.9C276.95 319.544 277.313 309.666 277.313 291.631C277.313 260.547 277.041 259.006 270.153 252.572C267.706 250.306 264.172 248.041 262.269 247.497C256.741 245.956 205.266 246.228 200.825 247.859ZM260.547 263.266L262.813 265.441V291.813V318.184L260.547 320.359L258.372 322.625H232H205.628L203.453 320.359L201.187 318.184V291.813V265.441L203.453 263.266L205.628 261H232H258.372L260.547 263.266Z" fill="white"/>
<path d="M332.231 247.769C327.337 249.581 321.175 255.925 319.453 260.909C317.641 266.166 317.459 316.1 319.181 322.081C320.631 327.066 328.153 334.587 333.137 336.037C335.675 336.762 345.281 337.125 363.588 337.125C394.853 337.125 396.394 336.853 402.647 329.875C404.822 327.519 407.088 323.894 407.631 321.9C408.356 319.544 408.719 309.666 408.719 291.631C408.719 261.634 408.356 259.278 402.647 253.387C396.303 246.862 397.028 246.953 364.766 246.772C341.656 246.591 335.041 246.772 332.231 247.769ZM391.953 263.266L394.219 265.441V291.812V318.184L391.953 320.359L389.778 322.625H363.406H337.034L334.859 320.359L332.594 318.184V291.812V265.441L334.859 263.266L337.034 261H363.406H389.778L391.953 263.266Z" fill="white"/>
<path d="M58.2719 360.234C54.2844 363.044 54.9188 370.294 59.45 372.378C60.9906 373.103 73.6781 373.375 100.956 373.375C139.291 373.375 140.288 373.375 142.644 371.472C145.997 368.844 145.997 363.406 142.644 360.778C140.288 358.875 139.291 358.875 100.231 358.875C66.4281 358.875 59.9031 359.056 58.2719 360.234Z" fill="white"/>
<path d="M183.516 361.775C180.706 365.128 180.978 368.209 184.512 371.291L186.778 373.375H226.653H266.619L269.247 370.747C272.056 367.847 272.419 366.216 270.787 363.134C268.522 358.875 269.066 358.966 226.381 358.875H185.962L183.516 361.775Z" fill="white"/>
<path d="M310.481 360.778C307.128 363.406 307.128 368.844 310.481 371.472C312.838 373.375 313.834 373.375 352.169 373.375C378.994 373.375 392.134 373.012 393.584 372.378C398.025 370.384 399.113 364.584 395.578 361.141L393.403 358.875H353.166C313.834 358.875 312.838 358.875 310.481 360.778Z" fill="white"/>
<path d="M84.5531 392.587C82.1062 393.766 80.2937 397.934 81.1094 400.562C81.4719 401.559 82.5594 403.281 83.6469 404.187C85.4594 405.909 86.9094 406 112.919 406C139.2 406 140.287 405.909 142.644 404.097C145.997 401.469 145.997 396.031 142.644 393.403C140.287 391.591 139.2 391.5 113.372 391.591C96.6062 391.591 85.8219 391.953 84.5531 392.587Z" fill="white"/>
<path d="M209.797 393.494C206.444 396.394 206.444 401.016 209.706 403.916L212.153 406H239.522C268.25 405.909 268.612 405.909 270.787 401.741C272.419 398.659 272.056 397.028 269.247 394.128L266.619 391.5H239.341C212.425 391.5 212.153 391.5 209.797 393.494Z" fill="white"/>
<path d="M335.856 393.403C332.503 396.031 332.503 401.469 335.856 404.097C338.212 405.909 339.3 406 365.853 406H393.403L395.578 403.734C398.025 401.378 398.387 399.112 396.847 395.759C395.034 391.772 392.95 391.5 364.856 391.5C339.3 391.5 338.212 391.591 335.856 393.403Z" fill="white"/>
</g>
</svg>
