<svg width="32" height="28" viewBox="0 0 32 28" fill="none" xmlns="http://www.w3.org/2000/svg">
<path d="M4.12828 0.444917C3.73588 0.0595189 3.10522 0.0595188 2.71983 0.451924C2.33443 0.837322 2.33443 1.46797 2.71983 1.85337L27.6305 26.7781C27.8898 27.0374 28.2612 27.1214 28.5905 27.0304C28.7587 26.9883 28.9129 26.8972 29.039 26.7711C29.4244 26.3857 29.4244 25.755 29.039 25.3696L4.12828 0.444917ZM16.1737 19.911C12.4599 20.0792 9.40473 17.024 9.57991 13.3172C9.62195 12.4623 9.83217 11.6495 10.1825 10.9137L6.44067 7.16485C4.49966 8.6644 2.55866 10.5914 0.477512 12.8617C0.0921147 13.2892 0.0851073 13.9268 0.470505 14.3543C5.0182 19.3785 9.02634 23.7019 15.8654 23.7019C17.9465 23.7019 19.8665 23.1834 21.6323 22.3565L18.5842 19.3084C17.8414 19.6587 17.0286 19.869 16.1737 19.911V19.911ZM31.2813 14.3122C31.6527 13.9058 31.6737 13.2892 31.3163 12.8617C27.6516 8.41214 22.5713 3.52109 15.8654 3.52109C13.8263 3.52109 11.9413 3.98357 10.1195 4.85247L13.1816 7.91463C13.9174 7.56426 14.7302 7.34704 15.5851 7.312C19.2989 7.14383 22.3541 10.199 22.1789 13.9058C22.1369 14.7607 21.9266 15.5735 21.5763 16.3093L25.3252 20.0582C27.6375 18.2853 29.6206 16.1411 31.2813 14.3122V14.3122Z" fill="#9A99A2"/>
</svg>
